<svg xmlns="http://www.w3.org/2000/svg" xmlns:xlink="http://www.w3.org/1999/xlink" version="1.1" data-diagram-type="DESCRIPTION" style="width:770px;height:368px;background:#FFFFFF;" width="770px" height="368px" viewBox="0 0 770 368" zoomAndPan="magnify" preserveAspectRatio="none" contentStyleType="text/css"><?plantuml 1.2026.8?><defs/><g font-family="sans-serif" lengthAdjust="spacing"><!--cluster Workflow 'water-bodies'--><g class="cluster" data-qualified-name="Workflow .water-bodies." id="ent0001" data-source-line="8"><polygon points="21,14,31,4,649,4,649,334,639,344,21,344,21,14" fill="none" style="stroke:#181818;stroke-width:1;stroke-linejoin:miter;stroke-miterlimit:10;"/><line x1="639" y1="14" x2="649" y2="4" style="stroke:#181818;stroke-width:1;"/><line x1="21" y1="14" x2="639" y2="14" style="stroke:#181818;stroke-width:1;"/><line x1="639" y1="14" x2="639" y2="344" style="stroke:#181818;stroke-width:1;"/><text x="246.892" y="31.966" fill="#000" font-size="14" textLength="168.216" font-weight="700">Workflow 'water-bodies'</text></g><!--cluster water_bodies--><g class="cluster" data-qualified-name="Workflow .water-bodies..water_bodies" id="ent0002" data-source-line="9"><rect x="261" y="59" width="172" height="52" fill="none" style="stroke:#181818;stroke-width:1;" rx="2.5" ry="2.5"/><rect x="413" y="64" width="15" height="10" fill="none" style="stroke:#181818;stroke-width:1;"/><rect x="411" y="66" width="4" height="2" fill="none" style="stroke:#181818;stroke-width:1;"/><rect x="411" y="70" width="4" height="2" fill="none" style="stroke:#181818;stroke-width:1;"/><text x="301.374" y="86.966" fill="#000" font-size="14" textLength="91.252" font-weight="700">water-bodies</text></g><!--cluster water_bodies_node_water_bodies--><g class="cluster" data-qualified-name="Workflow .water-bodies..water_bodies_node_water_bodies" id="ent0008" data-source-line="25"><rect x="41" y="153" width="340" height="111" fill="none" style="stroke:#181818;stroke-width:1;" rx="2.5" ry="2.5"/><path d="M185.991,153 L185.991,165.068 L175.991,175.068 L41,175.068" style="stroke:#181818;stroke-width:1;" fill="none"/><text x="44" y="168.966" fill="#000" font-size="14" textLength="134.991" font-weight="700">node_water_bodies</text></g><!--cluster water_bodies_node_stac--><g class="cluster" data-qualified-name="Workflow .water-bodies..water_bodies_node_stac" id="ent0019" data-source-line="67"><rect x="427" y="153" width="176" height="137" fill="none" style="stroke:#181818;stroke-width:1;" rx="2.5" ry="2.5"/><path d="M507.115,153 L507.115,165.068 L497.115,175.068 L427,175.068" style="stroke:#181818;stroke-width:1;" fill="none"/><text x="430" y="168.966" fill="#000" font-size="14" textLength="70.115" font-weight="700">node_stac</text></g><g class="entity" data-qualified-name="Workflow .water-bodies..water_bodies.IN_water_bodies_aoi" id="ent0003" data-source-line="11"><text x="337.032" y="131.966" fill="#000" font-size="14" textLength="19.936">aoi</text><rect x="341" y="105" width="12" height="12" fill="#F1F1F1" style="stroke:#181818;stroke-width:1.5;"/></g><g class="entity" data-qualified-name="Workflow .water-bodies..water_bodies.IN_water_bodies_epsg" id="ent0004" data-source-line="13"><text x="297.089" y="131.966" fill="#000" font-size="14" textLength="31.822">epsg</text><rect x="307" y="105" width="12" height="12" fill="#F1F1F1" style="stroke:#181818;stroke-width:1.5;"/></g><g class="entity" data-qualified-name="Workflow .water-bodies..water_bodies.IN_water_bodies_stac_items" id="ent0005" data-source-line="15"><text x="346.546" y="131.966" fill="#000" font-size="14" textLength="68.908">stac_items</text><rect x="375" y="105" width="12" height="12" fill="#F1F1F1" style="stroke:#181818;stroke-width:1.5;"/></g><g class="entity" data-qualified-name="Workflow .water-bodies..water_bodies.IN_water_bodies_bands" id="ent0006" data-source-line="17"><text x="258.784" y="131.966" fill="#000" font-size="14" textLength="40.432">bands</text><rect x="273" y="105" width="12" height="12" fill="#F1F1F1" style="stroke:#181818;stroke-width:1.5;"/></g><g class="entity" data-qualified-name="Workflow .water-bodies..water_bodies.OUT_water_bodies_stac_catalog" id="ent0007" data-source-line="20"><text x="374.638" y="131.966" fill="#000" font-size="14" textLength="80.724">stac_catalog</text><rect x="409" y="105" width="12" height="12" fill="#F1F1F1" style="stroke:#181818;stroke-width:1.5;"/></g><g class="entity" data-qualified-name="Workflow .water-bodies..water_bodies_node_water_bodies.IN_water_bodies_node_water_bodies_item" id="ent0009" data-source-line="27"><text x="366.174" y="238.466" fill="#000" font-size="14" textLength="29.652">item</text><rect x="375" y="211.5" width="12" height="12" fill="#F1F1F1" style="stroke:#181818;stroke-width:1.5;"/></g><g class="entity" data-qualified-name="Workflow .water-bodies..water_bodies_node_water_bodies.IN_water_bodies_node_water_bodies_aoi" id="ent0011" data-source-line="35"><text x="337.032" y="238.466" fill="#000" font-size="14" textLength="19.936">aoi</text><rect x="341" y="211.5" width="12" height="12" fill="#F1F1F1" style="stroke:#181818;stroke-width:1.5;"/></g><g class="entity" data-qualified-name="Workflow .water-bodies..water_bodies_node_water_bodies.IN_water_bodies_node_water_bodies_epsg" id="ent0013" data-source-line="43"><text x="297.089" y="238.466" fill="#000" font-size="14" textLength="31.822">epsg</text><rect x="307" y="211.5" width="12" height="12" fill="#F1F1F1" style="stroke:#181818;stroke-width:1.5;"/></g><g class="entity" data-qualified-name="Workflow .water-bodies..water_bodies_node_water_bodies.IN_water_bodies_node_water_bodies_bands" id="ent0015" data-source-line="51"><text x="258.784" y="238.466" fill="#000" font-size="14" textLength="40.432">bands</text><rect x="273" y="211.5" width="12" height="12" fill="#F1F1F1" style="stroke:#181818;stroke-width:1.5;"/></g><g class="entity" data-qualified-name="Workflow .water-bodies..water_bodies_node_water_bodies.OUT_water_bodies_node_water_bodies_detected_water_body" id="ent0017" data-source-line="61"><text x="174.706" y="238.466" fill="#000" font-size="14" textLength="140.587">detected_water_body</text><rect x="239" y="211.5" width="12" height="12" fill="#F1F1F1" style="stroke:#181818;stroke-width:1.5;"/></g><!--entity detect_water_body--><g class="entity" data-qualified-name="Workflow .water-bodies..water_bodies_node_water_bodies.detect_water_body" id="ent0018" data-source-line="64"><rect x="57" y="199" width="164.082" height="49.068" fill="#F1F1F1" style="stroke:#181818;stroke-width:0.5;" rx="2.5" ry="2.5"/><rect x="201.082" y="204" width="15" height="10" fill="#F1F1F1" style="stroke:#181818;stroke-width:0.5;"/><rect x="199.082" y="206" width="4" height="2" fill="#F1F1F1" style="stroke:#181818;stroke-width:0.5;"/><rect x="199.082" y="210" width="4" height="2" fill="#F1F1F1" style="stroke:#181818;stroke-width:0.5;"/><text x="72" y="233.966" fill="#000" font-size="14" textLength="124.082">detect_water_body</text></g><g class="entity" data-qualified-name="Workflow .water-bodies..water_bodies_node_stac.IN_water_bodies_node_stac_item" id="ent0020" data-source-line="69"><text x="518.174" y="195.398" fill="#000" font-size="14" textLength="29.652">item</text><rect x="527" y="211.5" width="12" height="12" fill="#F1F1F1" style="stroke:#181818;stroke-width:1.5;"/></g><g class="entity" data-qualified-name="Workflow .water-bodies..water_bodies_node_stac.IN_water_bodies_node_stac_rasters" id="ent0022" data-source-line="77"><text x="545.11" y="310.966" fill="#000" font-size="14" textLength="45.78">rasters</text><rect x="562" y="284" width="12" height="12" fill="#F1F1F1" style="stroke:#181818;stroke-width:1.5;"/></g><!--entity IN_water_bodies_node_water_bodies_detected_water_body--><g class="entity" data-qualified-name="Workflow .water-bodies..water_bodies_node_stac.IN_water_bodies_node_water_bodies_detected_water_body" id="ent0023" data-source-line="81"><ellipse cx="570" cy="220.5" rx="8" ry="8" fill="#F1F1F1" style="stroke:#181818;stroke-width:0.5;"/><text x="375.058" y="252.466" fill="#000" font-size="14" textLength="389.885">IN_water_bodies_node_water_bodies_detected_water_body</text></g><g class="entity" data-qualified-name="Workflow .water-bodies..water_bodies_node_stac.OUT_water_bodies_node_stac_stac_catalog" id="ent0025" data-source-line="87"><text x="562.638" y="195.398" fill="#000" font-size="14" textLength="80.724">stac_catalog</text><rect x="597" y="211.5" width="12" height="12" fill="#F1F1F1" style="stroke:#181818;stroke-width:1.5;"/></g><!--entity stac--><g class="entity" data-qualified-name="Workflow .water-bodies..water_bodies_node_stac.stac" id="ent0026" data-source-line="90"><rect x="443" y="199" width="66.334" height="49.068" fill="#F1F1F1" style="stroke:#181818;stroke-width:0.5;" rx="2.5" ry="2.5"/><rect x="489.334" y="204" width="15" height="10" fill="#F1F1F1" style="stroke:#181818;stroke-width:0.5;"/><rect x="487.334" y="206" width="4" height="2" fill="#F1F1F1" style="stroke:#181818;stroke-width:0.5;"/><rect x="487.334" y="210" width="4" height="2" fill="#F1F1F1" style="stroke:#181818;stroke-width:0.5;"/><text x="458" y="233.966" fill="#000" font-size="14" textLength="26.334">stac</text></g><g class="link" data-entity-1="ent0005" data-entity-2="ent0009" id="lnk10" data-link-type="dependency"><polygon points="383,211.397,387,202.397,383,206.397,379,202.397,383,211.397" fill="#181818" style="stroke:#181818;stroke-width:1;stroke-linejoin:miter;stroke-miterlimit:10;"/><path d="M383,129.183 C383,149.297 383,186.342 383,206.397" style="stroke:#181818;stroke-width:1;stroke-dasharray:7,7;" fill="none"/></g><g class="link" data-entity-1="ent0003" data-entity-2="ent0011" id="lnk12" data-link-type="dependency"><polygon points="349,211.397,353,202.397,349,206.397,345,202.397,349,211.397" fill="#181818" style="stroke:#181818;stroke-width:1;stroke-linejoin:miter;stroke-miterlimit:10;"/><path d="M349,129.183 C349,149.297 349,186.342 349,206.397" style="stroke:#181818;stroke-width:1;stroke-dasharray:7,7;" fill="none"/></g><g class="link" data-entity-1="ent0004" data-entity-2="ent0013" id="lnk14" data-link-type="dependency"><polygon points="315,211.397,319,202.397,315,206.397,311,202.397,315,211.397" fill="#181818" style="stroke:#181818;stroke-width:1;stroke-linejoin:miter;stroke-miterlimit:10;"/><path d="M315,129.183 C315,149.297 315,186.342 315,206.397" style="stroke:#181818;stroke-width:1;stroke-dasharray:7,7;" fill="none"/></g><g class="link" data-entity-1="ent0006" data-entity-2="ent0015" id="lnk16" data-link-type="dependency"><polygon points="281,211.397,285,202.397,281,206.397,277,202.397,281,211.397" fill="#181818" style="stroke:#181818;stroke-width:1;stroke-linejoin:miter;stroke-miterlimit:10;"/><path d="M281,129.183 C281,149.297 281,186.342 281,206.397" style="stroke:#181818;stroke-width:1;stroke-dasharray:7,7;" fill="none"/></g><g class="link" data-entity-1="ent0005" data-entity-2="ent0020" id="lnk21" data-link-type="dependency"><polygon points="535.93,211.304,540.28,202.468,536.126,206.308,532.286,202.154,535.93,211.304" fill="#181818" style="stroke:#181818;stroke-width:1;stroke-linejoin:miter;stroke-miterlimit:10;"/><path d="M387.063,129.048 C389.796,134.825 394.008,141.422 400,145 C422.566,158.474 497.886,136.083 518,153 C535.016,167.312 536.744,190.593 536.126,206.308" style="stroke:#181818;stroke-width:1;stroke-dasharray:7,7;" fill="none"/></g><g class="link" data-entity-1="ent0023" data-entity-2="ent0022" id="lnk24" data-link-type="dependency"><polygon points="570,283.829,574,274.829,570,278.829,566,274.829,570,283.829" fill="#181818" style="stroke:#181818;stroke-width:1;stroke-linejoin:miter;stroke-miterlimit:10;"/><path d="M570,235.516 C570,248.683 570,265.594 570,278.829" style="stroke:#181818;stroke-width:1;stroke-dasharray:7,7;" fill="none"/></g><g class="link" data-entity-1="ent0007" data-entity-2="ent0025" id="lnk28" data-link-type="dependency"><polygon points="425.186,118.54,433.878,123.17,430.173,118.896,434.447,115.19,425.186,118.54" fill="#181818" style="stroke:#181818;stroke-width:1;stroke-linejoin:miter;stroke-miterlimit:10;"/><path d="M430.173,118.896 C460.935,121.09 564.095,129.987 588,153 C603.929,168.335 605.925,195.945 605.663,211.346" style="stroke:#181818;stroke-width:1;stroke-dasharray:7,7;" fill="none"/></g><?plantuml-src lLLDRuGW4BtxAwPUzbH_Gk-zj9SsFPfPPRTc5OYmCQRP_rxm6u68DIa7Fs3cFTumCppn6gyLGeajkqiG5P58COh4hQ0SQwoWB2YHBIV0QldD8Zqeomd4Nwo-NKhMmAb1IUhdCyiB8aun_4IWHiOgpYYX4kBbUWmee9j8-ud1l7lemHLFGI56LdIshs_fqZnLysu7miNLwQ4Nt2v2OfOMabJ2wJWlkztFI7EtPxSoEncUEiuzSuOIIzPl-ltpmq4-MCmW3nL-_Rweer5de4_2SBF2crecle1heKun5a8Nayb_-h1-Z0b_S279MKEJbxt41lo-9BAHnxGwe4X1x92o90nGuirk6tdAzmDQDCOECGPbW1f_vTZOSoqTqDE1x11aaZeKUUew9v9aakGpMkikRvlIuRgWMhNKtdZDOisEFMFTCdJnULg5NlfRYvWg-hzQWqqOa7er2eKZDcGCLaUL19roWCZrTi8JSlkYcLdiAyULUbFkw8ynmHuhVdEdWPoGtBaAm_PLw0l1Bm00?></g></svg>