<svg xmlns="http://www.w3.org/2000/svg" xmlns:xlink="http://www.w3.org/1999/xlink" version="1.1" data-diagram-type="JSON" style="width:1637px;height:172px;background:#FFFFFF;" width="1637px" height="172px" viewBox="0 0 1637 172" zoomAndPan="magnify" preserveAspectRatio="none" contentStyleType="text/css"><?plantuml 1.2026.8?><defs/><g font-family="sans-serif" lengthAdjust="spacing"><rect x="10" y="102.534" width="179.82" height="23.068" fill="#F1F1F1" style="stroke:#F1F1F1;stroke-width:1.5;" rx="5" ry="5"/><text x="15" y="119.5" fill="#000" font-size="14" textLength="148.9" font-weight="700">detected_water_body</text><text x="173.9" y="119.5" fill="#000" font-size="14" textLength="10.92">   </text><line x1="168.9" y1="102.534" x2="168.9" y2="125.602" style="stroke:#000;stroke-width:1;"/><rect x="10" y="102.534" width="179.82" height="23.068" fill="none" style="stroke:#000;stroke-width:1.5;" rx="5" ry="5"/><rect x="227" y="67.932" width="593.56" height="92.272" fill="#F1F1F1" style="stroke:#F1F1F1;stroke-width:1.5;" rx="5" ry="5"/><text x="232" y="84.898" fill="#000" font-size="14" textLength="53.543" font-weight="700">schema</text><text x="320.536" y="84.898" fill="#000" font-size="14" textLength="10.92">   </text><line x1="315.536" y1="67.932" x2="315.536" y2="91" style="stroke:#000;stroke-width:1;"/><line x1="227" y1="91" x2="820.56" y2="91" style="stroke:#000;stroke-width:1;"/><text x="232" y="107.966" fill="#000" font-size="14" textLength="66.766" font-weight="700">metadata</text><text x="320.536" y="107.966" fill="#000" font-size="14" textLength="10.92">   </text><line x1="315.536" y1="91" x2="315.536" y2="114.068" style="stroke:#000;stroke-width:1;"/><line x1="227" y1="114.068" x2="820.56" y2="114.068" style="stroke:#000;stroke-width:1;"/><text x="232" y="131.034" fill="#000" font-size="14" textLength="27.415" font-weight="700">title</text><text x="320.536" y="131.034" fill="#000" font-size="14" textLength="137.045">Detected water body</text><line x1="315.536" y1="114.068" x2="315.536" y2="137.136" style="stroke:#000;stroke-width:1;"/><line x1="227" y1="137.136" x2="820.56" y2="137.136" style="stroke:#000;stroke-width:1;"/><text x="232" y="154.102" fill="#000" font-size="14" textLength="78.536" font-weight="700">description</text><text x="320.536" y="154.102" fill="#000" font-size="14" textLength="495.024">Binary raster mask produced by the nested water body detection workflow.</text><line x1="315.536" y1="137.136" x2="315.536" y2="160.204" style="stroke:#000;stroke-width:1;"/><rect x="227" y="67.932" width="593.56" height="92.272" fill="none" style="stroke:#000;stroke-width:1.5;" rx="5" ry="5"/><rect x="858" y="53.534" width="73.875" height="23.068" fill="#F1F1F1" style="stroke:#F1F1F1;stroke-width:1.5;" rx="5" ry="5"/><text x="863" y="70.5" fill="#000" font-size="14" textLength="42.955" font-weight="700">oneOf</text><text x="915.955" y="70.5" fill="#000" font-size="14" textLength="10.92">   </text><line x1="910.955" y1="53.534" x2="910.955" y2="76.602" style="stroke:#000;stroke-width:1;"/><rect x="858" y="53.534" width="73.875" height="23.068" fill="none" style="stroke:#000;stroke-width:1.5;" rx="5" ry="5"/><rect x="1014" y="36" width="20.92" height="46.136" fill="#F1F1F1" style="stroke:#F1F1F1;stroke-width:1.5;" rx="5" ry="5"/><text x="1019" y="52.966" fill="#000" font-size="14" textLength="10.92">   </text><line x1="1014" y1="59.068" x2="1034.92" y2="59.068" style="stroke:#000;stroke-width:1;"/><text x="1019" y="76.034" fill="#000" font-size="14" textLength="10.92">   </text><rect x="1014" y="36" width="20.92" height="46.136" fill="none" style="stroke:#000;stroke-width:1.5;" rx="5" ry="5"/><rect x="1318" y="10" width="106.107" height="46.136" fill="#F1F1F1" style="stroke:#F1F1F1;stroke-width:1.5;" rx="5" ry="5"/><text x="1323" y="26.966" fill="#000" font-size="14" textLength="30.45" font-weight="700">type</text><text x="1380.691" y="26.966" fill="#000" font-size="14" textLength="38.416">string</text><line x1="1375.691" y1="10" x2="1375.691" y2="33.068" style="stroke:#000;stroke-width:1;"/><line x1="1318" y1="33.068" x2="1424.107" y2="33.068" style="stroke:#000;stroke-width:1;"/><text x="1323" y="50.034" fill="#000" font-size="14" textLength="47.691" font-weight="700">format</text><text x="1380.691" y="50.034" fill="#000" font-size="14" textLength="18.046">uri</text><line x1="1375.691" y1="33.068" x2="1375.691" y2="56.136" style="stroke:#000;stroke-width:1;"/><rect x="1318" y="10" width="106.107" height="46.136" fill="none" style="stroke:#000;stroke-width:1.5;" rx="5" ry="5"/><rect x="1117" y="74.534" width="508.024" height="23.068" fill="#F1F1F1" style="stroke:#F1F1F1;stroke-width:1.5;" rx="5" ry="5"/><text x="1122" y="91.5" fill="#000" font-size="14" textLength="28.252" font-weight="700">$ref</text><text x="1160.252" y="91.5" fill="#000" font-size="14" textLength="459.772">https://schemas.stacspec.org/v1.0.0/item-spec/json-schema/item.json</text><line x1="1155.252" y1="74.534" x2="1155.252" y2="97.602" style="stroke:#000;stroke-width:1;"/><rect x="1117" y="74.534" width="508.024" height="23.068" fill="none" style="stroke:#000;stroke-width:1.5;" rx="5" ry="5"/><rect x="884.5" y="105.534" width="20.92" height="23.068" fill="#F1F1F1" style="stroke:#F1F1F1;stroke-width:1.5;" rx="5" ry="5"/><text x="889.5" y="122.5" fill="#000" font-size="14" textLength="10.92">   </text><rect x="884.5" y="105.534" width="20.92" height="23.068" fill="none" style="stroke:#000;stroke-width:1.5;" rx="5" ry="5"/><rect x="969" y="100" width="111.101" height="46.136" fill="#F1F1F1" style="stroke:#F1F1F1;stroke-width:1.5;" rx="5" ry="5"/><text x="974" y="116.966" fill="#000" font-size="14" textLength="27.415" font-weight="700">title</text><text x="1021.313" y="116.966" fill="#000" font-size="14" textLength="53.788">cwl:type</text><line x1="1016.313" y1="100" x2="1016.313" y2="123.068" style="stroke:#000;stroke-width:1;"/><line x1="969" y1="123.068" x2="1080.101" y2="123.068" style="stroke:#000;stroke-width:1;"/><text x="974" y="140.034" fill="#000" font-size="14" textLength="37.313" font-weight="700">value</text><text x="1021.313" y="140.034" fill="#000" font-size="14" textLength="22.386">File</text><line x1="1016.313" y1="123.068" x2="1016.313" y2="146.136" style="stroke:#000;stroke-width:1;"/><rect x="969" y="100" width="111.101" height="46.136" fill="none" style="stroke:#000;stroke-width:1.5;" rx="5" ry="5"/><path d="M1024,47.068 L1037,47.068 C1132.836,47.068 1244.027,41.225 1310.741,37.089" style="stroke:#000;stroke-width:1;stroke-dasharray:3,3;" fill="none"/><path d="M1310.929,40.094 L1312.994,36.948 L1310.552,34.084 L1318.252,36.619 L1310.929,40.094" fill="#000"/><ellipse cx="1024" cy="47.068" rx="3" ry="3" fill="#000" style="stroke:#000;stroke-width:1;"/><path d="M1024,71.068 L1037,71.068 C1080.694,71.068 1127.575,72.369 1171.977,74.204" style="stroke:#000;stroke-width:1;stroke-dasharray:3,3;" fill="none"/><path d="M1171.847,77.276 L1174.281,74.301 L1172.107,71.132 L1179.657,74.528 L1171.847,77.276" fill="#000"/><ellipse cx="1024" cy="71.068" rx="3" ry="3" fill="#000" style="stroke:#000;stroke-width:1;"/><path d="M920,65.068 L933,65.068 C958.813,65.068 988.655,62.635 1006.925,60.867" style="stroke:#000;stroke-width:1;stroke-dasharray:3,3;" fill="none"/><path d="M1007.227,63.877 L1009.183,60.641 L1006.624,57.857 L1014.45,60.113 L1007.227,63.877" fill="#000"/><ellipse cx="920" cy="65.068" rx="3" ry="3" fill="#000" style="stroke:#000;stroke-width:1;"/><path d="M809,79.068 L822,79.068 C831.407,79.068 841.378,77.918 850.817,76.276" style="stroke:#000;stroke-width:1;stroke-dasharray:3,3;" fill="none"/><path d="M851.381,79.25 L853.048,75.854 L850.254,73.302 L858.252,74.867 L851.381,79.25" fill="#000"/><ellipse cx="809" cy="79.068" rx="3" ry="3" fill="#000" style="stroke:#000;stroke-width:1;"/><path d="M893.03,116.953 L906.016,117.559 C918.455,118.14 940.195,119.155 961.651,120.157" style="stroke:#000;stroke-width:1;stroke-dasharray:3,3;" fill="none"/><path d="M961.51,123.181 L963.92,120.263 L961.793,117.132 L969.213,120.51 L961.51,123.181" fill="#000"/><ellipse cx="893.03" cy="116.953" rx="3" ry="3" fill="#000" style="stroke:#000;stroke-width:1;"/><path d="M809,102.068 L822,102.068 C841.304,102.068 862.911,107.231 877.475,111.498" style="stroke:#000;stroke-width:1;stroke-dasharray:3,3;" fill="none"/><path d="M876.579,114.421 L879.667,112.171 L878.371,108.576 L884.782,113.739 L876.579,114.421" fill="#000"/><ellipse cx="809" cy="102.068" rx="3" ry="3" fill="#000" style="stroke:#000;stroke-width:1;"/><path d="M178,114.068 L191,114.068 C200.338,114.068 209.823,114.068 219.399,114.068" style="stroke:#000;stroke-width:1;stroke-dasharray:3,3;" fill="none"/><path d="M219.399,117.147 L221.709,114.068 L219.399,110.988 L227.098,114.068 L219.399,117.147" fill="#000"/><ellipse cx="178" cy="114.068" rx="3" ry="3" fill="#000" style="stroke:#000;stroke-width:1;"/><?plantuml-src RL51QiCm4Bph5KBqcCXE3gNu54hfjGye8IZIEb5YMsQrZZ75Vwya6yU5tgIPsTsPtOCdXNJphc4_Z7DXW40Jc5El2F1qTcOG1OzK8Bs-GgsMVq1S0rzb0BvdW2zKecbe8R324zhc8ZPhhdHOAufiXrOipBZvlzKBGXmahaIjBx9iyk9byAzz2rewl6IFdSnbdbc2UXl1B0RRJjA4oWYiXisl8rkD5ZMGCehKAjVJYY1BLGgb-wf80P-EnKDLNI8_RH2nzPJZt7sf_vXNpTEgULhrh37WDTgMR30RbE-sKJXmL3uAG-exRz6PJeVYyy3f2hm1_xSLdouPEl3UuRsiN2-ZeP6Dx02DIITdExdFzw_oxHS0?></g></svg>