<svg xmlns="http://www.w3.org/2000/svg" xmlns:xlink="http://www.w3.org/1999/xlink" version="1.1" data-diagram-type="JSON" style="width:1833px;height:230px;background:#FFFFFF;" width="1833px" height="230px" viewBox="0 0 1833 230" zoomAndPan="magnify" preserveAspectRatio="none" contentStyleType="text/css"><?plantuml 1.2026.8?><defs/><g font-family="sans-serif" lengthAdjust="spacing"><rect x="10" y="160.534" width="116.894" height="23.068" fill="#F1F1F1" style="stroke:#F1F1F1;stroke-width:1.5;" rx="5" ry="5"/><text x="15" y="177.5" fill="#000" font-size="14" textLength="85.974" font-weight="700">stac_catalog</text><text x="110.974" y="177.5" fill="#000" font-size="14" textLength="10.92">   </text><line x1="105.974" y1="160.534" x2="105.974" y2="183.602" style="stroke:#000;stroke-width:1;"/><rect x="10" y="160.534" width="116.894" height="23.068" fill="none" style="stroke:#000;stroke-width:1.5;" rx="5" ry="5"/><rect x="164" y="125.932" width="609.128" height="92.272" fill="#F1F1F1" style="stroke:#F1F1F1;stroke-width:1.5;" rx="5" ry="5"/><text x="169" y="142.898" fill="#000" font-size="14" textLength="53.543" font-weight="700">schema</text><text x="257.536" y="142.898" fill="#000" font-size="14" textLength="10.92">   </text><line x1="252.536" y1="125.932" x2="252.536" y2="149" style="stroke:#000;stroke-width:1;"/><line x1="164" y1="149" x2="773.128" y2="149" style="stroke:#000;stroke-width:1;"/><text x="169" y="165.966" fill="#000" font-size="14" textLength="66.766" font-weight="700">metadata</text><text x="257.536" y="165.966" fill="#000" font-size="14" textLength="10.92">   </text><line x1="252.536" y1="149" x2="252.536" y2="172.068" style="stroke:#000;stroke-width:1;"/><line x1="164" y1="172.068" x2="773.128" y2="172.068" style="stroke:#000;stroke-width:1;"/><text x="169" y="189.034" fill="#000" font-size="14" textLength="27.415" font-weight="700">title</text><text x="257.536" y="189.034" fill="#000" font-size="14" textLength="136.051">Results STAC catalog</text><line x1="252.536" y1="172.068" x2="252.536" y2="195.136" style="stroke:#000;stroke-width:1;"/><line x1="164" y1="195.136" x2="773.128" y2="195.136" style="stroke:#000;stroke-width:1;"/><text x="169" y="212.102" fill="#000" font-size="14" textLength="78.536" font-weight="700">description</text><text x="257.536" y="212.102" fill="#000" font-size="14" textLength="510.592">Directory containing the results STAC catalog and its referenced raster assets.</text><line x1="252.536" y1="195.136" x2="252.536" y2="218.204" style="stroke:#000;stroke-width:1;"/><rect x="164" y="125.932" width="609.128" height="92.272" fill="none" style="stroke:#000;stroke-width:1.5;" rx="5" ry="5"/><rect x="810" y="105.534" width="73.875" height="23.068" fill="#F1F1F1" style="stroke:#F1F1F1;stroke-width:1.5;" rx="5" ry="5"/><text x="815" y="122.5" fill="#000" font-size="14" textLength="42.955" font-weight="700">oneOf</text><text x="867.955" y="122.5" fill="#000" font-size="14" textLength="10.92">   </text><line x1="862.955" y1="105.534" x2="862.955" y2="128.602" style="stroke:#000;stroke-width:1;"/><rect x="810" y="105.534" width="73.875" height="23.068" fill="none" style="stroke:#000;stroke-width:1.5;" rx="5" ry="5"/><rect x="969.5" y="59.932" width="20.92" height="92.272" fill="#F1F1F1" style="stroke:#F1F1F1;stroke-width:1.5;" rx="5" ry="5"/><text x="974.5" y="76.898" fill="#000" font-size="14" textLength="10.92">   </text><line x1="969.5" y1="83" x2="990.42" y2="83" style="stroke:#000;stroke-width:1;"/><text x="974.5" y="99.966" fill="#000" font-size="14" textLength="10.92">   </text><line x1="969.5" y1="106.068" x2="990.42" y2="106.068" style="stroke:#000;stroke-width:1;"/><text x="974.5" y="123.034" fill="#000" font-size="14" textLength="10.92">   </text><line x1="969.5" y1="129.136" x2="990.42" y2="129.136" style="stroke:#000;stroke-width:1;"/><text x="974.5" y="146.102" fill="#000" font-size="14" textLength="10.92">   </text><rect x="969.5" y="59.932" width="20.92" height="92.272" fill="none" style="stroke:#000;stroke-width:1.5;" rx="5" ry="5"/><rect x="1395.5" y="10" width="106.107" height="46.136" fill="#F1F1F1" style="stroke:#F1F1F1;stroke-width:1.5;" rx="5" ry="5"/><text x="1400.5" y="26.966" fill="#000" font-size="14" textLength="30.45" font-weight="700">type</text><text x="1458.191" y="26.966" fill="#000" font-size="14" textLength="38.416">string</text><line x1="1453.191" y1="10" x2="1453.191" y2="33.068" style="stroke:#000;stroke-width:1;"/><line x1="1395.5" y1="33.068" x2="1501.607" y2="33.068" style="stroke:#000;stroke-width:1;"/><text x="1400.5" y="50.034" fill="#000" font-size="14" textLength="47.691" font-weight="700">format</text><text x="1458.191" y="50.034" fill="#000" font-size="14" textLength="18.046">uri</text><line x1="1453.191" y1="33.068" x2="1453.191" y2="56.136" style="stroke:#000;stroke-width:1;"/><rect x="1395.5" y="10" width="106.107" height="46.136" fill="none" style="stroke:#000;stroke-width:1.5;" rx="5" ry="5"/><rect x="1194.5" y="74.534" width="508.024" height="23.068" fill="#F1F1F1" style="stroke:#F1F1F1;stroke-width:1.5;" rx="5" ry="5"/><text x="1199.5" y="91.5" fill="#000" font-size="14" textLength="28.252" font-weight="700">$ref</text><text x="1237.752" y="91.5" fill="#000" font-size="14" textLength="459.772">https://schemas.stacspec.org/v1.0.0/item-spec/json-schema/item.json</text><line x1="1232.752" y1="74.534" x2="1232.752" y2="97.602" style="stroke:#000;stroke-width:1;"/><rect x="1194.5" y="74.534" width="508.024" height="23.068" fill="none" style="stroke:#000;stroke-width:1.5;" rx="5" ry="5"/><rect x="1161.5" y="115.534" width="574.356" height="23.068" fill="#F1F1F1" style="stroke:#F1F1F1;stroke-width:1.5;" rx="5" ry="5"/><text x="1166.5" y="132.5" fill="#000" font-size="14" textLength="28.252" font-weight="700">$ref</text><text x="1204.752" y="132.5" fill="#000" font-size="14" textLength="526.104">https://schemas.stacspec.org/v1.0.0/collection-spec/json-schema/collection.json</text><line x1="1199.752" y1="115.534" x2="1199.752" y2="138.602" style="stroke:#000;stroke-width:1;"/><rect x="1161.5" y="115.534" width="574.356" height="23.068" fill="none" style="stroke:#000;stroke-width:1.5;" rx="5" ry="5"/><rect x="1076" y="156.534" width="745.155" height="23.068" fill="#F1F1F1" style="stroke:#F1F1F1;stroke-width:1.5;" rx="5" ry="5"/><text x="1081" y="173.5" fill="#000" font-size="14" textLength="28.252" font-weight="700">$ref</text><text x="1119.252" y="173.5" fill="#000" font-size="14" textLength="696.903">https://schemas.opengis.net/ogcapi/features/part1/1.0/openapi/schemas/featureCollectionGeoJSON.yaml</text><line x1="1114.252" y1="156.534" x2="1114.252" y2="179.602" style="stroke:#000;stroke-width:1;"/><rect x="1076" y="156.534" width="745.155" height="23.068" fill="none" style="stroke:#000;stroke-width:1.5;" rx="5" ry="5"/><rect x="836.5" y="169.534" width="20.92" height="23.068" fill="#F1F1F1" style="stroke:#F1F1F1;stroke-width:1.5;" rx="5" ry="5"/><text x="841.5" y="186.5" fill="#000" font-size="14" textLength="10.92">   </text><rect x="836.5" y="169.534" width="20.92" height="23.068" fill="none" style="stroke:#000;stroke-width:1.5;" rx="5" ry="5"/><rect x="921" y="170" width="117.989" height="46.136" fill="#F1F1F1" style="stroke:#F1F1F1;stroke-width:1.5;" rx="5" ry="5"/><text x="926" y="186.966" fill="#000" font-size="14" textLength="27.415" font-weight="700">title</text><text x="973.313" y="186.966" fill="#000" font-size="14" textLength="53.788">cwl:type</text><line x1="968.313" y1="170" x2="968.313" y2="193.068" style="stroke:#000;stroke-width:1;"/><line x1="921" y1="193.068" x2="1038.989" y2="193.068" style="stroke:#000;stroke-width:1;"/><text x="926" y="210.034" fill="#000" font-size="14" textLength="37.313" font-weight="700">value</text><text x="973.313" y="210.034" fill="#000" font-size="14" textLength="60.676">Directory</text><line x1="968.313" y1="193.068" x2="968.313" y2="216.136" style="stroke:#000;stroke-width:1;"/><rect x="921" y="170" width="117.989" height="46.136" fill="none" style="stroke:#000;stroke-width:1.5;" rx="5" ry="5"/><path d="M979.5,71.068 L992.5,71.068 C1011.961,71.068 1269.123,48.749 1388.219,38.321" style="stroke:#000;stroke-width:1;stroke-dasharray:3,3;" fill="none"/><path d="M1388.487,41.377 L1390.512,38.12 L1387.952,35.265 L1395.86,37.652 L1388.487,41.377" fill="#000"/><ellipse cx="979.5" cy="71.068" rx="3" ry="3" fill="#000" style="stroke:#000;stroke-width:1;"/><path d="M979.5,94.068 L992.5,94.068 C1055.487,94.068 1123.366,93.294 1186.998,92.227" style="stroke:#000;stroke-width:1;stroke-dasharray:3,3;" fill="none"/><path d="M1187.05,95.322 L1189.319,92.188 L1186.945,89.132 L1194.736,92.096 L1187.05,95.322" fill="#000"/><ellipse cx="979.5" cy="94.068" rx="3" ry="3" fill="#000" style="stroke:#000;stroke-width:1;"/><path d="M979.5,118.068 L992.5,118.068 C1044.813,118.068 1100.499,118.669 1154.323,119.56" style="stroke:#000;stroke-width:1;stroke-dasharray:3,3;" fill="none"/><path d="M1154.272,122.592 L1156.598,119.598 L1154.374,116.527 L1161.905,119.687 L1154.272,122.592" fill="#000"/><ellipse cx="979.5" cy="118.068" rx="3" ry="3" fill="#000" style="stroke:#000;stroke-width:1;"/><path d="M979.5,141.068 L992.5,141.068 C1029.741,141.068 1038.846,145.512 1076,148.068 C1117.934,150.952 1162.552,153.661 1205.788,156.098" style="stroke:#000;stroke-width:1;stroke-dasharray:3,3;" fill="none"/><path d="M1205.62,159.093 L1208.035,156.224 L1205.956,153.102 L1213.277,156.518 L1205.62,159.093" fill="#000"/><ellipse cx="979.5" cy="141.068" rx="3" ry="3" fill="#000" style="stroke:#000;stroke-width:1;"/><path d="M872,117.068 L885,117.068 C912.193,117.068 943.494,112.518 962.373,109.271" style="stroke:#000;stroke-width:1;stroke-dasharray:3,3;" fill="none"/><path d="M962.908,112.276 L964.626,108.87 L961.838,106.267 L969.884,107.934 L962.908,112.276" fill="#000"/><ellipse cx="872" cy="117.068" rx="3" ry="3" fill="#000" style="stroke:#000;stroke-width:1;"/><path d="M761,137.068 L774,137.068 C786.21,137.068 799.174,134.399 810.712,131.011" style="stroke:#000;stroke-width:1;stroke-dasharray:3,3;" fill="none"/><path d="M811.636,133.953 L812.918,130.318 L809.788,128.07 L818.066,128.702 L811.636,133.953" fill="#000"/><ellipse cx="761" cy="137.068" rx="3" ry="3" fill="#000" style="stroke:#000;stroke-width:1;"/><path d="M845.356,180.873 L858.302,182.05 C870.75,183.182 892.263,185.137 913.743,187.09" style="stroke:#000;stroke-width:1;stroke-dasharray:3,3;" fill="none"/><path d="M913.467,190.122 L916.017,187.297 L914.018,184.058 L921.324,187.779 L913.467,190.122" fill="#000"/><ellipse cx="845.356" cy="180.873" rx="3" ry="3" fill="#000" style="stroke:#000;stroke-width:1;"/><path d="M761,160.068 L774,160.068 C793.681,160.068 815.223,167.296 829.668,173.271" style="stroke:#000;stroke-width:1;stroke-dasharray:3,3;" fill="none"/><path d="M828.413,176.166 L831.839,174.212 L830.923,170.375 L836.906,176.407 L828.413,176.166" fill="#000"/><ellipse cx="761" cy="160.068" rx="3" ry="3" fill="#000" style="stroke:#000;stroke-width:1;"/><path d="M115,172.068 L128,172.068 C137.432,172.068 147.011,172.068 156.682,172.068" style="stroke:#000;stroke-width:1;stroke-dasharray:3,3;" fill="none"/><path d="M156.682,175.178 L159.014,172.068 L156.682,168.958 L164.456,172.068 L156.682,175.178" fill="#000"/><ellipse cx="115" cy="172.068" rx="3" ry="3" fill="#000" style="stroke:#000;stroke-width:1;"/><?plantuml-src hLB1QW8n4BtlLuJGeoRgeHHF5Wk57YhKtegKa1tNb6mI9hCMAVvxatLTjyLRUqlUcxpt9ZEBI0hf8tfNV1MCyNJLxrgHihxYSvQnZEeTrAg_9yGxM6qJyDO1hATQcWu14flaqBYAZuRSrcEjABCD6jupnz5rgHk4RCHtH27EfJnbYI8dZG6qy5Z9_LHCn4GQWdgSGPax6fzAMrHau7_DjBSMD9bizDlomltHs0TmbOd20KbVQHMCt8AY1Y7Aa2OtbIcCp5MPwbwTIvPzYaVmJ-lLipYesWx2TATDCOZ6Qo1LfWqOJFSIbPCXsuvMVzfvE-PBHtolRDEI3mQJiSV3sUnajUaiUf4NY8sboDQlzqjsNhkkg8IeqOGS_uSaqzwHCYuj5gCTCBoYmPGhcKbW-bP0S1fAXYeI85Cn0aMHWnsBOx40LxRhNqp5R3Ax5NVV?></g></svg>