<svg xmlns="http://www.w3.org/2000/svg" xmlns:xlink="http://www.w3.org/1999/xlink" version="1.1" data-diagram-type="DESCRIPTION" style="width:1062px;height:380px;background:#FFFFFF;" width="1062px" height="380px" viewBox="0 0 1062 380" zoomAndPan="magnify" preserveAspectRatio="none" contentStyleType="text/css"><?plantuml 1.2026.8?><defs/><g font-family="sans-serif" lengthAdjust="spacing"><!--cluster Workflow 'water-bodies'--><g class="cluster" data-qualified-name="Workflow .water-bodies." id="ent0001" data-source-line="8"><polygon points="21,14,31,4,981,4,981,346.5,971,356.5,21,356.5,21,14" fill="none" style="stroke:#181818;stroke-width:1;stroke-linejoin:miter;stroke-miterlimit:10;"/><line x1="971" y1="14" x2="981" y2="4" style="stroke:#181818;stroke-width:1;"/><line x1="21" y1="14" x2="971" y2="14" style="stroke:#181818;stroke-width:1;"/><line x1="971" y1="14" x2="971" y2="356.5" style="stroke:#181818;stroke-width:1;"/><text x="412.892" y="31.966" fill="#000" font-size="14" textLength="168.216" font-weight="700">Workflow 'water-bodies'</text></g><!--cluster water_bodies--><g class="cluster" data-qualified-name="Workflow .water-bodies..water_bodies" id="ent0002" data-source-line="9"><rect x="593" y="71.5" width="172" height="52" fill="none" style="stroke:#181818;stroke-width:1;" rx="2.5" ry="2.5"/><rect x="745" y="76.5" width="15" height="10" fill="none" style="stroke:#181818;stroke-width:1;"/><rect x="743" y="78.5" width="4" height="2" fill="none" style="stroke:#181818;stroke-width:1;"/><rect x="743" y="82.5" width="4" height="2" fill="none" style="stroke:#181818;stroke-width:1;"/><text x="633.374" y="99.466" fill="#000" font-size="14" textLength="91.252" font-weight="700">water-bodies</text></g><!--cluster water_bodies_node_crop--><g class="cluster" data-qualified-name="Workflow .water-bodies..water_bodies_node_crop" id="ent0008" data-source-line="25"><rect x="467" y="165.5" width="246" height="111" fill="none" style="stroke:#181818;stroke-width:1;" rx="2.5" ry="2.5"/><path d="M550.363,165.5 L550.363,177.568 L540.363,187.568 L467,187.568" style="stroke:#181818;stroke-width:1;" fill="none"/><text x="470" y="181.466" fill="#000" font-size="14" textLength="73.363" font-weight="700">node_crop</text></g><!--cluster water_bodies_node_normalized_difference--><g class="cluster" data-qualified-name="Workflow .water-bodies..water_bodies_node_normalized_difference" id="ent0019" data-source-line="67"><rect x="233" y="59" width="214" height="171" fill="none" style="stroke:#181818;stroke-width:1;" rx="2.5" ry="2.5"/><path d="M441.288,59 L441.288,71.068 L431.288,81.068 L233,81.068" style="stroke:#181818;stroke-width:1;" fill="none"/><text x="236" y="74.966" fill="#000" font-size="14" textLength="198.288" font-weight="700">node_normalized_difference</text></g><!--cluster water_bodies_node_otsu--><g class="cluster" data-qualified-name="Workflow .water-bodies..water_bodies_node_otsu" id="ent0025" data-source-line="85"><rect x="41" y="59" width="172" height="171" fill="none" style="stroke:#181818;stroke-width:1;" rx="2.5" ry="2.5"/><path d="M123.663,59 L123.663,71.068 L113.663,81.068 L41,81.068" style="stroke:#181818;stroke-width:1;" fill="none"/><text x="44" y="74.966" fill="#000" font-size="14" textLength="72.663" font-weight="700">node_otsu</text></g><!--cluster water_bodies_node_stac--><g class="cluster" data-qualified-name="Workflow .water-bodies..water_bodies_node_stac" id="ent0031" data-source-line="103"><rect x="759" y="165.5" width="176" height="137" fill="none" style="stroke:#181818;stroke-width:1;" rx="2.5" ry="2.5"/><path d="M839.115,165.5 L839.115,177.568 L829.115,187.568 L759,187.568" style="stroke:#181818;stroke-width:1;" fill="none"/><text x="762" y="181.466" fill="#000" font-size="14" textLength="70.115" font-weight="700">node_stac</text></g><g class="entity" data-qualified-name="Workflow .water-bodies..water_bodies.IN_water_bodies_aoi" id="ent0003" data-source-line="11"><text x="669.032" y="144.466" fill="#000" font-size="14" textLength="19.936">aoi</text><rect x="673" y="117.5" width="12" height="12" fill="#F1F1F1" style="stroke:#181818;stroke-width:1.5;"/></g><g class="entity" data-qualified-name="Workflow .water-bodies..water_bodies.IN_water_bodies_epsg" id="ent0004" data-source-line="13"><text x="629.089" y="144.466" fill="#000" font-size="14" textLength="31.822">epsg</text><rect x="639" y="117.5" width="12" height="12" fill="#F1F1F1" style="stroke:#181818;stroke-width:1.5;"/></g><g class="entity" data-qualified-name="Workflow .water-bodies..water_bodies.IN_water_bodies_bands" id="ent0005" data-source-line="15"><text x="590.784" y="144.466" fill="#000" font-size="14" textLength="40.432">bands</text><rect x="605" y="117.5" width="12" height="12" fill="#F1F1F1" style="stroke:#181818;stroke-width:1.5;"/></g><g class="entity" data-qualified-name="Workflow .water-bodies..water_bodies.IN_water_bodies_item" id="ent0006" data-source-line="17"><text x="698.174" y="144.466" fill="#000" font-size="14" textLength="29.652">item</text><rect x="707" y="117.5" width="12" height="12" fill="#F1F1F1" style="stroke:#181818;stroke-width:1.5;"/></g><g class="entity" data-qualified-name="Workflow .water-bodies..water_bodies.OUT_water_bodies_stac_catalog" id="ent0007" data-source-line="20"><text x="706.638" y="144.466" fill="#000" font-size="14" textLength="80.724">stac_catalog</text><rect x="741" y="117.5" width="12" height="12" fill="#F1F1F1" style="stroke:#181818;stroke-width:1.5;"/></g><g class="entity" data-qualified-name="Workflow .water-bodies..water_bodies_node_crop.IN_water_bodies_node_crop_item" id="ent0009" data-source-line="27"><text x="698.174" y="250.966" fill="#000" font-size="14" textLength="29.652">item</text><rect x="707" y="224" width="12" height="12" fill="#F1F1F1" style="stroke:#181818;stroke-width:1.5;"/></g><g class="entity" data-qualified-name="Workflow .water-bodies..water_bodies_node_crop.IN_water_bodies_node_crop_aoi" id="ent0011" data-source-line="35"><text x="669.032" y="250.966" fill="#000" font-size="14" textLength="19.936">aoi</text><rect x="673" y="224" width="12" height="12" fill="#F1F1F1" style="stroke:#181818;stroke-width:1.5;"/></g><g class="entity" data-qualified-name="Workflow .water-bodies..water_bodies_node_crop.IN_water_bodies_node_crop_epsg" id="ent0013" data-source-line="43"><text x="629.089" y="250.966" fill="#000" font-size="14" textLength="31.822">epsg</text><rect x="639" y="224" width="12" height="12" fill="#F1F1F1" style="stroke:#181818;stroke-width:1.5;"/></g><g class="entity" data-qualified-name="Workflow .water-bodies..water_bodies_node_crop.IN_water_bodies_node_crop_band" id="ent0015" data-source-line="51"><text x="594.137" y="250.966" fill="#000" font-size="14" textLength="33.726">band</text><rect x="605" y="224" width="12" height="12" fill="#F1F1F1" style="stroke:#181818;stroke-width:1.5;"/></g><g class="entity" data-qualified-name="Workflow .water-bodies..water_bodies_node_crop.OUT_water_bodies_node_crop_cropped" id="ent0017" data-source-line="61"><text x="549.651" y="250.966" fill="#000" font-size="14" textLength="54.698">cropped</text><rect x="571" y="224" width="12" height="12" fill="#F1F1F1" style="stroke:#181818;stroke-width:1.5;"/></g><!--entity crop--><g class="entity" data-qualified-name="Workflow .water-bodies..water_bodies_node_crop.crop" id="ent0018" data-source-line="64"><rect x="483" y="211.5" width="69.582" height="49.068" fill="#F1F1F1" style="stroke:#181818;stroke-width:0.5;" rx="2.5" ry="2.5"/><rect x="532.582" y="216.5" width="15" height="10" fill="#F1F1F1" style="stroke:#181818;stroke-width:0.5;"/><rect x="530.582" y="218.5" width="4" height="2" fill="#F1F1F1" style="stroke:#181818;stroke-width:0.5;"/><rect x="530.582" y="222.5" width="4" height="2" fill="#F1F1F1" style="stroke:#181818;stroke-width:0.5;"/><text x="498" y="246.466" fill="#000" font-size="14" textLength="29.582">crop</text></g><g class="entity" data-qualified-name="Workflow .water-bodies..water_bodies_node_normalized_difference.IN_water_bodies_node_normalized_difference_rasters" id="ent0020" data-source-line="69"><text x="396.11" y="250.966" fill="#000" font-size="14" textLength="45.78">rasters</text><rect x="413" y="224" width="12" height="12" fill="#F1F1F1" style="stroke:#181818;stroke-width:1.5;"/></g><!--entity IN_water_bodies_node_crop_cropped--><g class="entity" data-qualified-name="Workflow .water-bodies..water_bodies_node_normalized_difference.IN_water_bodies_node_crop_cropped" id="ent0021" data-source-line="73"><ellipse cx="421" cy="126.5" rx="8" ry="8" fill="#F1F1F1" style="stroke:#181818;stroke-width:0.5;"/><text x="298.066" y="158.466" fill="#000" font-size="14" textLength="245.867">IN_water_bodies_node_crop_cropped</text></g><g class="entity" data-qualified-name="Workflow .water-bodies..water_bodies_node_normalized_difference.OUT_water_bodies_node_normalized_difference_ndwi" id="ent0023" data-source-line="79"><text x="367.061" y="101.398" fill="#000" font-size="14" textLength="31.878">ndwi</text><rect x="377" y="117.5" width="12" height="12" fill="#F1F1F1" style="stroke:#181818;stroke-width:1.5;"/></g><!--entity norm_diff--><g class="entity" data-qualified-name="Workflow .water-bodies..water_bodies_node_normalized_difference.norm_diff" id="ent0024" data-source-line="82"><rect x="253" y="105" width="104.064" height="49.068" fill="#F1F1F1" style="stroke:#181818;stroke-width:0.5;" rx="2.5" ry="2.5"/><rect x="337.064" y="110" width="15" height="10" fill="#F1F1F1" style="stroke:#181818;stroke-width:0.5;"/><rect x="335.064" y="112" width="4" height="2" fill="#F1F1F1" style="stroke:#181818;stroke-width:0.5;"/><rect x="335.064" y="116" width="4" height="2" fill="#F1F1F1" style="stroke:#181818;stroke-width:0.5;"/><text x="268" y="139.966" fill="#000" font-size="14" textLength="64.064">norm_diff</text></g><g class="entity" data-qualified-name="Workflow .water-bodies..water_bodies_node_otsu.IN_water_bodies_node_otsu_raster" id="ent0026" data-source-line="87"><text x="166.463" y="250.966" fill="#000" font-size="14" textLength="39.074">raster</text><rect x="180" y="224" width="12" height="12" fill="#F1F1F1" style="stroke:#181818;stroke-width:1.5;"/></g><!--entity IN_water_bodies_node_normalized_difference_ndwi--><g class="entity" data-qualified-name="Workflow .water-bodies..water_bodies_node_otsu.IN_water_bodies_node_normalized_difference_ndwi" id="ent0027" data-source-line="91"><ellipse cx="188" cy="126.5" rx="8" ry="8" fill="#F1F1F1" style="stroke:#181818;stroke-width:0.5;"/><text x="17.733" y="158.466" fill="#000" font-size="14" textLength="340.535">IN_water_bodies_node_normalized_difference_ndwi</text></g><g class="entity" data-qualified-name="Workflow .water-bodies..water_bodies_node_otsu.OUT_water_bodies_node_otsu_binary_mask_item" id="ent0029" data-source-line="97"><text x="91.57" y="101.398" fill="#000" font-size="14" textLength="118.86">binary_mask_item</text><rect x="145" y="117.5" width="12" height="12" fill="#F1F1F1" style="stroke:#181818;stroke-width:1.5;"/></g><!--entity otsu--><g class="entity" data-qualified-name="Workflow .water-bodies..water_bodies_node_otsu.otsu" id="ent0030" data-source-line="100"><rect x="57.5" y="105" width="68.882" height="49.068" fill="#F1F1F1" style="stroke:#181818;stroke-width:0.5;" rx="2.5" ry="2.5"/><rect x="106.382" y="110" width="15" height="10" fill="#F1F1F1" style="stroke:#181818;stroke-width:0.5;"/><rect x="104.382" y="112" width="4" height="2" fill="#F1F1F1" style="stroke:#181818;stroke-width:0.5;"/><rect x="104.382" y="116" width="4" height="2" fill="#F1F1F1" style="stroke:#181818;stroke-width:0.5;"/><text x="72.5" y="139.966" fill="#000" font-size="14" textLength="28.882">otsu</text></g><g class="entity" data-qualified-name="Workflow .water-bodies..water_bodies_node_stac.IN_water_bodies_node_stac_item" id="ent0032" data-source-line="105"><text x="850.174" y="207.898" fill="#000" font-size="14" textLength="29.652">item</text><rect x="859" y="224" width="12" height="12" fill="#F1F1F1" style="stroke:#181818;stroke-width:1.5;"/></g><g class="entity" data-qualified-name="Workflow .water-bodies..water_bodies_node_stac.IN_water_bodies_node_stac_rasters" id="ent0034" data-source-line="113"><text x="877.11" y="323.466" fill="#000" font-size="14" textLength="45.78">rasters</text><rect x="894" y="296.5" width="12" height="12" fill="#F1F1F1" style="stroke:#181818;stroke-width:1.5;"/></g><!--entity IN_water_bodies_node_otsu_binary_mask_item--><g class="entity" data-qualified-name="Workflow .water-bodies..water_bodies_node_stac.IN_water_bodies_node_otsu_binary_mask_item" id="ent0035" data-source-line="117"><ellipse cx="902" cy="233" rx="8" ry="8" fill="#F1F1F1" style="stroke:#181818;stroke-width:0.5;"/><text x="747.336" y="264.966" fill="#000" font-size="14" textLength="309.329">IN_water_bodies_node_otsu_binary_mask_item</text></g><g class="entity" data-qualified-name="Workflow .water-bodies..water_bodies_node_stac.OUT_water_bodies_node_stac_stac_catalog" id="ent0037" data-source-line="123"><text x="894.638" y="207.898" fill="#000" font-size="14" textLength="80.724">stac_catalog</text><rect x="929" y="224" width="12" height="12" fill="#F1F1F1" style="stroke:#181818;stroke-width:1.5;"/></g><!--entity stac--><g class="entity" data-qualified-name="Workflow .water-bodies..water_bodies_node_stac.stac" id="ent0038" data-source-line="126"><rect x="775" y="211.5" width="66.334" height="49.068" fill="#F1F1F1" style="stroke:#181818;stroke-width:0.5;" rx="2.5" ry="2.5"/><rect x="821.334" y="216.5" width="15" height="10" fill="#F1F1F1" style="stroke:#181818;stroke-width:0.5;"/><rect x="819.334" y="218.5" width="4" height="2" fill="#F1F1F1" style="stroke:#181818;stroke-width:0.5;"/><rect x="819.334" y="222.5" width="4" height="2" fill="#F1F1F1" style="stroke:#181818;stroke-width:0.5;"/><text x="790" y="246.466" fill="#000" font-size="14" textLength="26.334">stac</text></g><g class="link" data-entity-1="ent0006" data-entity-2="ent0009" id="lnk10" data-link-type="dependency"><polygon points="715,223.897,719,214.897,715,218.897,711,214.897,715,223.897" fill="#181818" style="stroke:#181818;stroke-width:1;stroke-linejoin:miter;stroke-miterlimit:10;"/><path d="M715,141.683 C715,161.797 715,198.842 715,218.897" style="stroke:#181818;stroke-width:1;stroke-dasharray:7,7;" fill="none"/></g><g class="link" data-entity-1="ent0003" data-entity-2="ent0011" id="lnk12" data-link-type="dependency"><polygon points="681,223.897,685,214.897,681,218.897,677,214.897,681,223.897" fill="#181818" style="stroke:#181818;stroke-width:1;stroke-linejoin:miter;stroke-miterlimit:10;"/><path d="M681,141.683 C681,161.797 681,198.842 681,218.897" style="stroke:#181818;stroke-width:1;stroke-dasharray:7,7;" fill="none"/></g><g class="link" data-entity-1="ent0004" data-entity-2="ent0013" id="lnk14" data-link-type="dependency"><polygon points="647,223.897,651,214.897,647,218.897,643,214.897,647,223.897" fill="#181818" style="stroke:#181818;stroke-width:1;stroke-linejoin:miter;stroke-miterlimit:10;"/><path d="M647,141.683 C647,161.797 647,198.842 647,218.897" style="stroke:#181818;stroke-width:1;stroke-dasharray:7,7;" fill="none"/></g><g class="link" data-entity-1="ent0005" data-entity-2="ent0015" id="lnk16" data-link-type="dependency"><polygon points="613,223.897,617,214.897,613,218.897,609,214.897,613,223.897" fill="#181818" style="stroke:#181818;stroke-width:1;stroke-linejoin:miter;stroke-miterlimit:10;"/><path d="M613,141.683 C613,161.797 613,198.842 613,218.897" style="stroke:#181818;stroke-width:1;stroke-dasharray:7,7;" fill="none"/></g><g class="link" data-entity-1="ent0021" data-entity-2="ent0020" id="lnk22" data-link-type="dependency"><polygon points="421,223.897,425,214.897,421,218.897,417,214.897,421,223.897" fill="#181818" style="stroke:#181818;stroke-width:1;stroke-linejoin:miter;stroke-miterlimit:10;"/><path d="M421,141.683 C421,161.797 421,198.842 421,218.897" style="stroke:#181818;stroke-width:1;stroke-dasharray:7,7;" fill="none"/></g><g class="link" data-entity-1="ent0027" data-entity-2="ent0026" id="lnk28" data-link-type="dependency"><polygon points="188,223.897,192,214.897,188,218.897,184,214.897,188,223.897" fill="#181818" style="stroke:#181818;stroke-width:1;stroke-linejoin:miter;stroke-miterlimit:10;"/><path d="M188,141.683 C188,161.797 188,198.842 188,218.897" style="stroke:#181818;stroke-width:1;stroke-dasharray:7,7;" fill="none"/></g><g class="link" data-entity-1="ent0006" data-entity-2="ent0032" id="lnk33" data-link-type="dependency"><polygon points="867.93,223.804,872.28,214.968,868.126,218.808,864.286,214.654,867.93,223.804" fill="#181818" style="stroke:#181818;stroke-width:1;stroke-linejoin:miter;stroke-miterlimit:10;"/><path d="M719.063,141.548 C721.796,147.325 726.008,153.922 732,157.5 C754.566,170.974 829.886,148.583 850,165.5 C867.016,179.812 868.744,203.093 868.126,218.808" style="stroke:#181818;stroke-width:1;stroke-dasharray:7,7;" fill="none"/></g><g class="link" data-entity-1="ent0035" data-entity-2="ent0034" id="lnk36" data-link-type="dependency"><polygon points="902,296.329,906,287.329,902,291.329,898,287.329,902,296.329" fill="#181818" style="stroke:#181818;stroke-width:1;stroke-linejoin:miter;stroke-miterlimit:10;"/><path d="M902,248.016 C902,261.183 902,278.094 902,291.329" style="stroke:#181818;stroke-width:1;stroke-dasharray:7,7;" fill="none"/></g><g class="link" data-entity-1="ent0007" data-entity-2="ent0037" id="lnk40" data-link-type="dependency"><polygon points="757.186,131.04,765.878,135.67,762.173,131.396,766.447,127.69,757.186,131.04" fill="#181818" style="stroke:#181818;stroke-width:1;stroke-linejoin:miter;stroke-miterlimit:10;"/><path d="M762.173,131.396 C792.935,133.59 896.095,142.487 920,165.5 C935.929,180.835 937.925,208.445 937.663,223.846" style="stroke:#181818;stroke-width:1;stroke-dasharray:7,7;" fill="none"/></g><?plantuml-src lLOzSyCW3DtpAwYNJCrFwDwbNThho2asJhdOm04vNzhBVoyYZZyXeN6l7X8RwKdFUXBuGMdOrK0gECg39QPc5WIiLcRFXG8DDQcuOFQe697QVieLNa8MZ6GVKk_BIZPatO1b-d4h2yxCEYFVA-AkNDPA2YOioORsZ80XVe6U5rft_uENSdcu81b8xdsVN-ZGdRhrC80fimiYq126R44K9eZnbZ28MrO7CMZe8ICSrZOp5dAQWuLAdec-lh-D8mmz-Y0dLtByBvqShkvOVPfhgMQbf9qfLjGezmxPlyKemEnXj12g1DaKiX6RfzHKeu2_Qua-ugKv5d1t8HAe3nCbC8_sPX-nwz85t3560lbHgWJsE0mtsAFBKlP-vXBeZt85w4V63x6A5U79wwEtReDGazsi6psykGpeT3w5r3LK_8iLjE1boJGJEOiCRD0tDi4QZCERk1p1QBI5BPLeLgRhSgLnIPTG50s_ebyu7OBYQYB6U_kutLDCLsdD8I8Zcgwh5XSDiMrT_aIYU2Mk2nRYaIxFbWlGHrg3sTFkf0bBvHDD_UCgTMN7cvWsU7f6j47JVMUYFvB_vqoSfqhOcs_k1pxgNuv_KBg4Dxj_x6z_EFLPvfzGeNxgMWLlBlrqckGVCqtCIJO7vSfm-zCkLe8V?></g></svg>